<?xml version="1.0" encoding="UTF-8" standalone="no"?>
<svg
   xmlns:dc="http://purl.org/dc/elements/1.1/"
   xmlns:cc="http://creativecommons.org/ns#"
   xmlns:rdf="http://www.w3.org/1999/02/22-rdf-syntax-ns#"
   xmlns:svg="http://www.w3.org/2000/svg"
   xmlns="http://www.w3.org/2000/svg"
   xmlns:sodipodi="http://sodipodi.sourceforge.net/DTD/sodipodi-0.dtd"
   xmlns:inkscape="http://www.inkscape.org/namespaces/inkscape"
   height="422.58347"
   width="483.32352"
   id="svg2"
   version="1.1"
   inkscape:version="0.91 r13725"
   sodipodi:docname="nasa-rackspace-logo.svg">
  <metadata
     id="metadata120">
    <rdf:RDF>
      <cc:Work
         rdf:about="">
        <dc:format>image/svg+xml</dc:format>
        <dc:type
           rdf:resource="http://purl.org/dc/dcmitype/StillImage" />
        <dc:title></dc:title>
      </cc:Work>
    </rdf:RDF>
  </metadata>
  <defs
     id="defs118" />
  <sodipodi:namedview
     pagecolor="#ffffff"
     bordercolor="#666666"
     borderopacity="1"
     objecttolerance="10"
     gridtolerance="10"
     guidetolerance="10"
     inkscape:pageopacity="0"
     inkscape:pageshadow="2"
     inkscape:window-width="1280"
     inkscape:window-height="1002"
     id="namedview116"
     showgrid="false"
     fit-margin-top="10"
     fit-margin-left="10"
     fit-margin-right="10"
     fit-margin-bottom="10"
     inkscape:zoom="0.98333333"
     inkscape:cx="252.88308"
     inkscape:cy="294.78346"
     inkscape:window-x="0"
     inkscape:window-y="0"
     inkscape:window-maximized="1"
     inkscape:current-layer="svg2" />
  <path
     d="m 260.135,127.8 c 0,64.618 -53.234,117.8 -117.92,117.8 -64.685,0 -117.92,-53.185 -117.92,-117.8 0,-64.622 51.99,-117.8 117.92,-117.8 63.437,0 117.92,53.181 117.92,117.8"
     id="path4"
     inkscape:connector-curvature="0"
     style="fill:#1a5dad;fill-rule:nonzero" />
  <path
     d="m 168.815,189.8 c 50.379,20.724 41.636,-31.647 14.782,-71.747 -15.22,-22.718 -35.07,-41.645 -47.59,-50.78 -41.513,-30.298 -67.14,-11.922 -37.826,47.83 9.4777,19.319 21.651,32.358 31.159,44.648 7.261,9.3828 21.404,14.081 16.422,18.534 -5.6144,5.0207 -19.209,-17.124 -19.209,-17.124 -10.04,-12.11 -19.61,-25.03 -29.473,-42.76 -22.535,-40.499 -19.286,-81.833 21.503,-63.828 34.615,15.288 67.678,58.166 80.971,88.616 6.1401,14.059 22.88,69.692 -30.437,47.2"
     id="path6"
     inkscape:connector-curvature="0"
     style="fill:#ffffff;fill-rule:nonzero" />
  <path
     d="m 12.151,162.72 c 22.163,-14.76 43.176,-24.29 78.935,-36.1 50.249,-16.6 88.069,-27.758 134.47,-51.082 20.77,-10.438 56.81,-33.847 69.7,-54.198 -3.86,7.876 -15.81,23.206 -21.22,29.987 -62.96,78.833 -197.07,74.363 -261,112.21"
     id="path8"
     inkscape:connector-curvature="0"
     style="fill:#ee293d;fill-rule:nonzero" />
  <path
     d="m 44.303,105.103 c 20.284,0.15916 18.294,-0.0407 18.531,0.1969 0.35457,0 16.196,27.282 16.196,27.517 0,0.11657 -0.11844,-9.6951 -0.11844,-21.966 0,-1.4172 -3.8995,-5.5505 -3.7829,-5.5505 5.7896,0 13.357,0.11844 13.357,0.11844 -2.8354,3.3069 -3.4018,3.0357 -3.4254,5.079 -0.07995,6.5716 -0.15468,18.716 0,32.358 0.02204,2.0448 1.5371,2.8343 4.0194,6.3777 l -18.562,0 c -6.0291,-10.038 -17.077,-28.869 -17.022,-28.816 0.08481,0.0863 -0.238,11.812 0.11545,21.257 0.11956,3.1216 1.5382,4.133 4.1405,6.9688 0,0 2.9931,-0.0803 -14.542,0.11694 5.3196,-2.8343 4.6131,-6.3766 4.6105,-6.4947 -0.19129,-13.052 -0.0396,-24.211 -0.0396,-31.415 0,-1.1806 -0.08033,-1.0641 -3.7433,-5.5505"
     id="path10"
     inkscape:connector-curvature="0"
     style="fill:#ffffff;fill-rule:nonzero" />
  <path
     d="m 107.725,125.26 c 1.7033,-5.9126 3.1582,-11.197 3.8487,-14.642 0.11694,-0.59107 -1.3002,-2.7159 -3.5464,-4.8425 l -0.15916,-0.32991 c 10.831,0.0351 22.146,0.0934 22.146,0.0934 2.9554,7.2042 9.6936,27.397 14.777,39.798 1.3443,3.2778 3.6649,3.8965 3.6649,3.8965 -9.221,-0.11657 -26.333,-0.0377 -26.242,-0.11657 4.609,-4.136 4.0179,-4.136 2.0082,-10.157 l -14.421,0 c -2.9554,6.8478 0.92098,10.063 1.4172,10.038 -3.2823,0.16925 -14.421,0 -14.421,0 6.0291,-4.2529 5.6731,-5.5505 5.6731,-5.5505 1.6566,-5.892 3.5756,-12.347 5.2554,-18.191 l 5.9167,0.001 c -1.2711,4.0766 -2.5421,8.1498 -2.5421,8.1498 l 11.47,0 -6.3852,-16.298 c 0,0 -1.2711,4.0747 -2.5425,8.148 l -5.9167,-0.001"
     id="path12"
     inkscape:connector-curvature="0"
     style="fill:#ffffff;fill-rule:nonzero" />
  <path
     d="m 206.795,125.85 c 1.7,-5.9111 3.1567,-11.197 3.8457,-14.644 0.11657,-0.58808 -1.3021,-2.7129 -3.5468,-4.841 l -0.16028,-0.32841 c 10.834,0.0351 22.152,0.0934 22.152,0.0934 2.9509,7.2042 9.6906,27.398 14.773,39.798 1.3428,3.2793 3.6634,3.898 3.6634,3.898 -9.2165,-0.11956 -26.329,-0.0377 -26.241,-0.11956 4.612,-4.1315 4.0209,-4.1315 2.0112,-10.155 l -14.424,0 c -2.9557,6.8492 0.91911,10.063 1.4156,10.04 -3.2796,0.16775 -14.42,0 -14.42,0 6.0276,-4.2529 5.6742,-5.552 5.6742,-5.552 1.6566,-5.8931 3.5759,-12.346 5.2572,-18.189 l 5.9152,0 c -1.274,4.0762 -2.5395,8.1509 -2.5395,8.1509 l 11.464,0 -6.3848,-16.298 c 0,0 -1.267,4.0732 -2.5395,8.1468 l -5.9152,0"
     id="path14"
     inkscape:connector-curvature="0"
     style="fill:#ffffff;fill-rule:nonzero" />
  <path
     d="m 188.145,116.17 c -0.23651,-8.3874 0,-11.103 0,-11.103 -3.6664,2.9539 -1.8169,2.5772 -10.993,1.0637 -26.445,-4.3635 -28.46,20.325 -14.069,25.863 12.08,4.6497 16.361,5.5606 14.539,9.9186 -0.59107,1.4201 -11.584,6.6157 -22.931,-3.8954 l 0.23352,14.644 c 1.4186,-1.4609 5.3226,-4.133 5.3226,-4.133 0.11657,0 12.3,5.3678 23.286,-0.238 16.908,-8.6195 8.4693,-22.572 -9.5741,-28.106 -15.014,-4.6064 -0.82758,-15.354 14.066,-3.8969"
     id="path16"
     inkscape:connector-curvature="0"
     style="fill:#ffffff;fill-rule:nonzero" />
  <path
     d="m 143.875,20.698 c 0,0.5283 -0.4319,0.9617 -0.96021,0.9617 -0.52531,0 -0.96021,-0.4334 -0.96021,-0.9617 0,-0.52382 0.4349,-0.95872 0.96021,-0.95872 0.52831,0 0.96021,0.4349 0.96021,0.95872"
     id="path18"
     inkscape:connector-curvature="0"
     style="fill:#ffffff;fill-rule:nonzero" />
  <path
     d="m 150.535,35.24 c 0,0.64786 -0.53727,1.1806 -1.1821,1.1806 -0.64935,0 -1.1836,-0.53278 -1.1836,-1.1806 0,-0.64637 0.53428,-1.1792 1.1836,-1.1792 0.64487,0 1.1821,0.53279 1.1821,1.1792"
     id="path20"
     inkscape:connector-curvature="0"
     style="fill:#ffffff;fill-rule:nonzero" />
  <path
     d="m 167.815,59.006 c 0,0.64674 -0.53241,1.1806 -1.1821,1.1806 -0.64637,0 -1.1821,-0.53391 -1.1821,-1.1806 0,-0.64786 0.49617,-1.1821 1.1459,-1.1821 0.64935,0 1.2184,0.53428 1.2184,1.1821"
     id="path22"
     inkscape:connector-curvature="0"
     style="fill:#ffffff;fill-rule:nonzero" />
  <path
     d="m 140.035,43.433 c 0,0.52681 -0.43191,0.95871 -0.96021,0.95871 -0.52718,0 -0.96208,-0.43191 -0.96208,-0.95871 0,-0.52569 0.4349,-0.96058 0.96208,-0.96058 0.5283,0 0.96021,0.4349 0.96021,0.96058"
     id="path24"
     inkscape:connector-curvature="0"
     style="fill:#ffffff;fill-rule:nonzero" />
  <path
     d="m 150.385,48.896 c 0,0.52382 -0.43377,0.95871 -0.95908,0.95871 -0.52681,0 -0.96171,-0.4349 -0.96171,-0.95871 0,-0.52531 0.4349,-0.95909 0.96171,-0.95909 0.52531,0 0.95908,0.43378 0.95908,0.95909"
     id="path26"
     inkscape:connector-curvature="0"
     style="fill:#ffffff;fill-rule:nonzero" />
  <path
     d="m 136.935,33.615 c 0,0.64823 -0.53391,1.1806 -1.1821,1.1806 -0.64786,0 -1.1821,-0.53241 -1.1821,-1.1806 0,-0.64786 0.53428,-1.1821 1.1821,-1.1821 0.64823,0 1.1821,0.53428 1.1821,1.1821"
     id="path28"
     inkscape:connector-curvature="0"
     style="fill:#ffffff;fill-rule:nonzero" />
  <path
     d="m 121.275,43.138 c 0,0.52681 -0.4334,0.96021 -0.9617,0.96021 -0.52681,0 -0.96021,-0.4334 -0.96021,-0.96021 0,-0.52569 0.4334,-0.96058 0.96021,-0.96058 0.5283,0 0.9617,0.4349 0.9617,0.96058"
     id="path30"
     inkscape:connector-curvature="0"
     style="fill:#ffffff;fill-rule:nonzero" />
  <path
     d="m 124.075,45.055 c 0,0.52868 -0.4334,0.96208 -0.9617,0.96208 -0.52681,0 -0.9617,-0.4334 -0.9617,-0.96208 0,-0.52531 0.43489,-0.95722 0.9617,-0.95722 0.5283,0 0.9617,0.43191 0.9617,0.95722"
     id="path32"
     inkscape:connector-curvature="0"
     style="fill:#ffffff;fill-rule:nonzero" />
  <path
     d="m 126.885,46.975 c 0,0.5283 -0.43341,0.9617 -0.96059,0.9617 -0.5268,0 -0.9617,-0.4334 -0.9617,-0.9617 0,-0.52382 0.4349,-0.95722 0.9617,-0.95722 0.52718,0 0.96059,0.4334 0.96059,0.95722"
     id="path34"
     inkscape:connector-curvature="0"
     style="fill:#ffffff;fill-rule:nonzero" />
  <path
     d="m 122.605,50.667 c 0,0.52681 -0.43639,0.96021 -0.96171,0.96021 -0.5283,0 -0.96207,-0.4334 -0.96207,-0.96021 0,-0.52531 0.43377,-0.95871 0.96207,-0.95871 0.52532,0 0.96171,0.4334 0.96171,0.95871"
     id="path36"
     inkscape:connector-curvature="0"
     style="fill:#ffffff;fill-rule:nonzero" />
  <path
     d="m 100.289,66.314 c 0,0.52681 -0.4349,0.95872 -0.9617,0.95872 -0.52681,0 -0.9617,-0.43191 -0.9617,-0.95872 0,-0.52681 0.4349,-0.96058 0.9617,-0.96058 0.52681,0 0.9617,0.43378 0.9617,0.96058"
     id="path38"
     inkscape:connector-curvature="0"
     style="fill:#ffffff;fill-rule:nonzero" />
  <path
     d="m 104.425,71.335 c 0,0.52569 -0.4349,0.95909 -0.9617,0.95909 -0.52681,0 -0.9617,-0.4334 -0.9617,-0.95909 0,-0.5283 0.4349,-0.96021 0.9617,-0.96021 0.52681,0 0.9617,0.43191 0.9617,0.96021"
     id="path40"
     inkscape:connector-curvature="0"
     style="fill:#ffffff;fill-rule:nonzero" />
  <path
     d="m 101.137,152.38 c 0,0.52718 -0.4334,0.95909 -0.96058,0.95909 -0.52681,0 -0.96021,-0.43191 -0.96021,-0.95909 0,-0.52531 0.4334,-0.96021 0.96021,-0.96021 0.52718,0 0.96058,0.4349 0.96058,0.96021"
     id="path42"
     inkscape:connector-curvature="0"
     style="fill:#ffffff;fill-rule:nonzero" />
  <path
     d="m 101.728,174.74 c 0,0.64786 -0.53428,1.1792 -1.1821,1.1792 -0.64823,0 -1.1821,-0.53129 -1.1821,-1.1792 0,-0.64823 0.53391,-1.1806 1.1821,-1.1806 0.64786,0 1.1821,0.53241 1.1821,1.1806"
     id="path44"
     inkscape:connector-curvature="0"
     style="fill:#ffffff;fill-rule:nonzero" />
  <path
     d="m 89.017,186.19 c 0,0.52382 -0.4334,0.95871 -0.95872,0.95871 -0.52681,0 -0.9617,-0.43489 -0.9617,-0.95871 0,-0.5283 0.4349,-0.96058 0.9617,-0.96058 0.52531,0 0.95872,0.43228 0.95872,0.96058"
     id="path46"
     inkscape:connector-curvature="0"
     style="fill:#ffffff;fill-rule:nonzero" />
  <path
     d="m 73.799,190.83 c 0,0.64786 -0.53727,1.1792 -1.1836,1.1792 -0.64823,0 -1.1821,-0.53129 -1.1821,-1.1792 0,-0.64936 0.53391,-1.1821 1.1821,-1.1821 0.64637,0 1.1836,0.53278 1.1836,1.1821"
     id="path48"
     inkscape:connector-curvature="0"
     style="fill:#ffffff;fill-rule:nonzero" />
  <path
     d="m 70.695,180.5 c 0,0.64488 -0.53391,1.1792 -1.1806,1.1792 -0.64786,0 -1.1821,-0.53428 -1.1821,-1.1792 0,-0.64935 0.53428,-1.1821 1.1821,-1.1821 0.64674,0 1.1806,0.53279 1.1806,1.1821"
     id="path50"
     inkscape:connector-curvature="0"
     style="fill:#ffffff;fill-rule:nonzero" />
  <path
     d="m 68.924,187.07 c 0,0.52681 -0.4349,0.95872 -0.9617,0.95872 -0.52681,0 -0.96208,-0.43191 -0.96208,-0.95872 0,-0.52531 0.43527,-0.96021 0.96208,-0.96021 0.52681,0 0.9617,0.4349 0.9617,0.96021"
     id="path52"
     inkscape:connector-curvature="0"
     style="fill:#ffffff;fill-rule:nonzero" />
  <path
     d="m 57.543,181.61 c 0,0.52531 -0.4334,0.96021 -0.95872,0.96021 -0.5283,0 -0.96208,-0.4349 -0.96208,-0.96021 0,-0.52532 0.43378,-0.95909 0.96208,-0.95909 0.52531,0 0.95872,0.43377 0.95872,0.95909"
     id="path54"
     inkscape:connector-curvature="0"
     style="fill:#ffffff;fill-rule:nonzero" />
  <path
     d="m 97.293,200.06 c 0,0.52718 -0.39716,0.96058 -0.92247,0.96058 -0.52681,0 -0.99832,-0.4334 -0.99832,-0.96058 0,-0.52531 0.4349,-0.96021 0.96021,-0.96021 0.5283,0 0.96058,0.4349 0.96058,0.96021"
     id="path56"
     inkscape:connector-curvature="0"
     style="fill:#ffffff;fill-rule:nonzero" />
  <path
     d="m 109.265,191.28 c 0,0.64936 -0.49617,1.1821 -1.1459,1.1821 -0.64786,0 -1.2184,-0.53278 -1.2184,-1.1821 0,-0.64524 0.53391,-1.1792 1.1821,-1.1792 0.64936,0 1.1822,0.53391 1.1822,1.1792"
     id="path58"
     inkscape:connector-curvature="0"
     style="fill:#ffffff;fill-rule:nonzero" />
  <path
     d="m 110.635,202.57 c 0,0.52681 -0.473,0.96208 -0.99682,0.96208 -0.5283,0 -0.9617,-0.43527 -0.9617,-0.96208 0,-0.52531 0.4334,-0.95722 0.9617,-0.95722 0.52382,0 0.99682,0.43191 0.99682,0.95722"
     id="path60"
     inkscape:connector-curvature="0"
     style="fill:#ffffff;fill-rule:nonzero" />
  <path
     d="m 159.835,191.79 c 0,0.52568 -0.4334,0.96058 -0.95871,0.96058 -0.5298,0 -0.9632,-0.4349 -0.9632,-0.96058 0,-0.52681 0.4334,-0.95872 0.9632,-0.95872 0.52531,0 0.95871,0.43191 0.95871,0.95872"
     id="path62"
     inkscape:connector-curvature="0"
     style="fill:#ffffff;fill-rule:nonzero" />
  <path
     d="m 136.935,199.91 c 0,0.5268 -0.43191,0.95871 -0.96021,0.95871 -0.52532,0 -0.96021,-0.43191 -0.96021,-0.95871 0,-0.52532 0.43489,-0.96021 0.96021,-0.96021 0.5283,0 0.96021,0.43489 0.96021,0.96021"
     id="path64"
     inkscape:connector-curvature="0"
     style="fill:#ffffff;fill-rule:nonzero" />
  <path
     d="m 198.555,211.58 c 0,0.52538 -0.4349,0.95886 -0.96021,0.95886 -0.5283,0 -0.9632,-0.43348 -0.9632,-0.95886 0,-0.52689 0.4349,-0.96033 0.9632,-0.96033 0.52531,0 0.96021,0.43344 0.96021,0.96033"
     id="path66"
     inkscape:connector-curvature="0"
     style="fill:#ffffff;fill-rule:nonzero" />
  <path
     d="m 203.575,166.18 c 0,0.64786 -0.53241,1.1821 -1.1821,1.1821 -0.64936,0 -1.1821,-0.53428 -1.1821,-1.1821 0,-0.64824 0.53278,-1.1821 1.1821,-1.1821 0.64973,0 1.1821,0.5339 1.1821,1.1821"
     id="path68"
     inkscape:connector-curvature="0"
     style="fill:#ffffff;fill-rule:nonzero" />
  <path
     d="m 194.125,172.6 c 0,0.52568 -0.4334,0.96058 -0.9632,0.96058 -0.52568,0 -0.95909,-0.4349 -0.95909,-0.96058 0,-0.52681 0.43341,-0.95872 0.95909,-0.95872 0.5298,0 0.9632,0.43191 0.9632,0.95872"
     id="path70"
     inkscape:connector-curvature="0"
     style="fill:#ffffff;fill-rule:nonzero" />
  <path
     d="m 203.435,174.45 c 0,0.64786 -0.53278,1.1821 -1.1821,1.1821 -0.64972,0 -1.1821,-0.53428 -1.1821,-1.1821 0,-0.64674 0.53242,-1.1806 1.1821,-1.1806 0.64936,0 1.1821,0.53391 1.1821,1.1806"
     id="path72"
     inkscape:connector-curvature="0"
     style="fill:#ffffff;fill-rule:nonzero" />
  <path
     d="m 194.125,185.89 c 0,0.52531 -0.4334,0.95871 -0.9632,0.95871 -0.52568,0 -0.95909,-0.4334 -0.95909,-0.95871 0,-0.52681 0.43341,-0.96059 0.95909,-0.96059 0.5298,0 0.9632,0.43378 0.9632,0.96059"
     id="path74"
     inkscape:connector-curvature="0"
     style="fill:#ffffff;fill-rule:nonzero" />
  <path
     d="m 218.205,159.76 c 0,0.52681 -0.43489,0.96059 -0.96058,0.96059 -0.52531,0 -0.95871,-0.43378 -0.95871,-0.96059 0,-0.5268 0.4334,-0.95871 0.95871,-0.95871 0.52569,0 0.96058,0.43191 0.96058,0.95871"
     id="path76"
     inkscape:connector-curvature="0"
     style="fill:#ffffff;fill-rule:nonzero" />
  <path
     d="m 220.535,165.59 c 0,0.64935 -0.49318,1.1821 -1.1425,1.1821 -0.64972,0 -1.2188,-0.53279 -1.2188,-1.1821 0,-0.64824 0.53278,-1.1792 1.1792,-1.1792 0.64936,0 1.1821,0.53091 1.1821,1.1792"
     id="path78"
     inkscape:connector-curvature="0"
     style="fill:#ffffff;fill-rule:nonzero" />
  <path
     d="m 237.125,172.53 c 0,0.64786 -0.52979,1.1806 -1.1821,1.1806 -0.64972,0 -1.1821,-0.53278 -1.1821,-1.1806 0,-0.64637 0.53242,-1.1821 1.1821,-1.1821 0.65235,0 1.1821,0.53577 1.1821,1.1821"
     id="path80"
     inkscape:connector-curvature="0"
     style="fill:#ffffff;fill-rule:nonzero" />
  <path
     d="m 220.275,184.86 c 0,0.52532 -0.43789,0.95909 -0.96357,0.95909 -0.52532,0 -0.96021,-0.43377 -0.96021,-0.95909 0,-0.5283 0.43489,-0.96021 0.96021,-0.96021 0.52568,0 0.96357,0.43191 0.96357,0.96021"
     id="path82"
     inkscape:connector-curvature="0"
     style="fill:#ffffff;fill-rule:nonzero" />
  <path
     d="m 230.915,174.82 c 0,0.5268 -0.4334,0.95871 -0.95871,0.95871 -0.52531,0 -0.96021,-0.43191 -0.96021,-0.95871 0,-0.52681 0.4349,-0.96021 0.96021,-0.96021 0.52531,0 0.95871,0.4334 0.95871,0.96021"
     id="path84"
     inkscape:connector-curvature="0"
     style="fill:#ffffff;fill-rule:nonzero" />
  <path
     d="m 228.955,190.32 c 0,0.52718 -0.4334,0.95909 -0.95871,0.95909 -0.5298,0 -0.9632,-0.43191 -0.9632,-0.95909 0,-0.52531 0.4334,-0.96021 0.9632,-0.96021 0.52531,0 0.95871,0.4349 0.95871,0.96021"
     id="path86"
     inkscape:connector-curvature="0"
     style="fill:#ffffff;fill-rule:nonzero" />
  <path
     d="m 233.465,164.56 c 0,0.81001 -0.66878,1.4754 -1.4784,1.4754 -0.81001,0 -1.4773,-0.66542 -1.4773,-1.4754 0,-0.81001 0.66729,-1.4754 1.4773,-1.4754 0.80964,0 1.4784,0.66542 1.4784,1.4754"
     id="path88"
     inkscape:connector-curvature="0"
     style="fill:#ffffff;fill-rule:nonzero" />
  <path
     d="m 231.985,160.06 -0.44087,4.059 -4.028,0.44348 4.0602,0.44088 0.44498,4.2088 0.44536,-4.2088 3.9884,-0.51523 -4.025,-0.36913 -0.44498,-4.059"
     id="path90"
     inkscape:connector-curvature="0"
     style="fill:#ffffff;fill-rule:nonzero" />
  <path
     d="m 223.115,190.24 c 0,0.81002 -0.66692,1.4754 -1.4769,1.4754 -0.81001,0 -1.4784,-0.66542 -1.4784,-1.4754 0,-0.81001 0.66842,-1.4754 1.4784,-1.4754 0.81001,0 1.4769,0.66542 1.4769,1.4754"
     id="path92"
     inkscape:connector-curvature="0"
     style="fill:#ffffff;fill-rule:nonzero" />
  <path
     d="m 221.645,185.74 -0.44499,4.059 -4.0254,0.44349 4.0616,0.44386 0.44535,4.2059 0.44499,-4.2059 3.9873,-0.51672 -4.028,-0.37063 -0.44087,-4.059"
     id="path94"
     inkscape:connector-curvature="0"
     style="fill:#ffffff;fill-rule:nonzero" />
  <path
     d="m 112.885,68.305 c 0,0.81001 -0.66691,1.4754 -1.4769,1.4754 -0.81301,0 -1.4784,-0.66542 -1.4784,-1.4754 0,-0.81001 0.66542,-1.4754 1.4784,-1.4754 0.81001,0 1.4769,0.66542 1.4769,1.4754"
     id="path96"
     inkscape:connector-curvature="0"
     style="fill:#ffffff;fill-rule:nonzero" />
  <path
     d="m 111.405,63.803 -0.44387,4.0587 -4.028,0.44386 4.0646,0.44087 0.44386,4.2089 0.442,-4.2089 3.9903,-0.51373 -4.028,-0.37101 -0.44087,-4.0587"
     id="path98"
     inkscape:connector-curvature="0"
     style="fill:#ffffff;fill-rule:nonzero" />
  <path
     d="m 167.855,32.583 c 0,0.81001 -0.66841,1.4769 -1.4784,1.4769 -0.81001,0 -1.4739,-0.66692 -1.4739,-1.4769 0,-0.81001 0.66393,-1.4769 1.4739,-1.4769 0.81001,0 1.4784,0.66692 1.4784,1.4769"
     id="path100"
     inkscape:connector-curvature="0"
     style="fill:#ffffff;fill-rule:nonzero" />
  <path
     d="m 166.375,28.077 -0.44088,4.0602 -4.028,0.44386 4.0646,0.44349 0.44087,4.2077 0.44499,-4.2077 3.9888,-0.51821 -4.028,-0.36914 -0.44237,-4.0602"
     id="path102"
     inkscape:connector-curvature="0"
     style="fill:#ffffff;fill-rule:nonzero" />
  <path
     d="m 101.025,213.87 c 0,0.81001 -0.66692,1.4755 -1.4769,1.4755 -0.813,0 -1.4799,-0.6655 -1.4799,-1.4755 0,-0.80855 0.66692,-1.477 1.4799,-1.477 0.81001,0 1.4769,0.66841 1.4769,1.477"
     id="path104"
     inkscape:connector-curvature="0"
     style="fill:#ffffff;fill-rule:nonzero" />
  <path
     d="m 99.583,209.36 -0.442,4.0602 -4.0269,0.44367 4.0635,0.44222 0.44349,4.2077 0.44237,-4.2077 3.9899,-0.51518 -4.0265,-0.37071 L 99.583,209.36"
     id="path106"
     inkscape:connector-curvature="0"
     style="fill:#ffffff;fill-rule:nonzero" />
  <path
     d="m 295.245,21.341 c -17.97,53.312 -89.96,94.479 -150.56,133.78 -36.559,23.714 -72.856,51.011 -97.844,74.239 -6.5866,6.1255 1.3421,-2.2899 -1.1821,0.29629 34.872,-40.153 74.986,-64.069 97.153,-79.122 37.489,-25.469 58.812,-31.888 123.49,-91.463"
     id="path108"
     inkscape:connector-curvature="0"
     style="fill:#ee293d;fill-rule:nonzero" />
  <path
     d="m 27.14,153.42 c -6.4536,3.1571 -12.235,6.2768 -17.14,9.3219 l 2.9846,1.0861 c 4.2896,-2.6419 9.4399,-5.3973 14.865,-7.8259"
     id="path110"
     inkscape:connector-curvature="0"
     style="fill:#ee293d;fill-rule:nonzero" />
  <path
     d="m 61.212,213.08 c -5.8995,5.1489 -11.997,10.645 -18.113,16.406 l -0.27013,4.0706 c 5.5998,-5.768 12.479,-11.998 20.418,-18.608"
     id="path112"
     inkscape:connector-curvature="0"
     style="fill:#ee293d;fill-rule:nonzero" />
  <path
     d="m 168.815,189.8 c 50.379,20.724 41.636,-31.647 14.782,-71.747 -15.22,-22.718 -33.99,-40.74 -47.59,-50.78 -15.88,-11.725 -17.43,-12.697 -17.43,-12.697 35.462,16.831 67.678,58.165 80.971,88.616 6.1401,14.059 22.88,69.692 -30.437,47.2"
     id="path114"
     inkscape:connector-curvature="0"
     style="fill:#ffffff;fill-rule:nonzero" />
  <g
     id="g3526"
     transform="matrix(6.1903702,0,0,6.1903702,-1417.7974,-4441.7049)"
     style="fill-rule:nonzero">
    <path
       id="path3528"
       d="m 288.681,743.45 c 9.0625,-0.55176 16.25,5.33203 16.7822,14.4434 0.60058,10.3662 -7.65625,20.9912 -18.4522,23.7402 -3.73535,0.94239 -7.23144,0.83497 -10.2686,-0.122 -0.21973,-4.0918 0.57617,-8.3545 2.3291,-11.333 2.85645,-4.85351 7.18261,-4.43847 9.6582,0.92285 0.93262,2.0166 1.46972,4.44824 1.62597,6.95313 0.86426,-0.45899 1.70411,-0.97657 2.50489,-1.5332 -2.67578,-6.49414 -3.87208,-14.1846 5.71777,-27.6904 -2.78808,-2.23144 -7.0752,-3.31543 -12.4268,-2.62695 0.79103,-0.92285 1.63086,-1.8457 2.5293,-2.7539 z"
       inkscape:connector-curvature="0"
       style="fill:#000000" />
    <path
       id="path3530"
       d="m 286.474,754.446 c -0.77638,1.63087 -0.46388,2.97364 0.69335,2.99805 1.15235,0.0195 2.71972,-1.28906 3.4961,-2.9248 0.77636,-1.63086 0.46875,-2.97364 -0.68848,-2.99805 -1.15722,-0.0195 -2.72461,1.28906 -3.50097,2.9248 z m -0.78614,-4.6289 c -8.10548,9.93653 -11.5478,22.8418 -11.0644,34.3506 -4.78516,-1.91406 -8.29103,-6.52832 -8.65723,-12.3779 l 0,-0.0684 c -0.60547,-10.376 7.67089,-21.0058 18.4814,-23.7451 4.19923,-1.05957 8.16406,-0.77636 11.4746,0.57618 -0.68847,1.96289 -1.84082,4.20899 -2.9834,5.90331 -2.39257,3.55469 -5.83007,5.7959 -7.67577,5.00978 -1.84083,-0.79103 -1.39649,-4.31641 1.00097,-7.87598 0.55175,-0.82031 1.1621,-1.57227 1.79688,-2.23145 -0.78125,0.10738 -1.57228,0.25879 -2.37305,0.45899 z"
       inkscape:connector-curvature="0"
       style="fill:#b80017" />
  </g>
</svg>
